<svg width="96" height="75" viewBox="0 0 96 75" fill="none" xmlns="http://www.w3.org/2000/svg">
<path d="M78.2137 17.6157C77.9467 14.2127 76.5453 11.4102 74.2763 9.54185C70.9395 6.80608 66.0679 6.33899 60.4621 8.27405C60.3286 8.34078 60.1952 8.40751 60.0617 8.40751C59.9282 8.20733 59.7947 7.94042 59.6613 7.74024C56.7917 2.73578 52.7208 0 48.383 0C44.0452 0 39.9744 2.73578 37.038 7.74024C36.8378 8.07388 36.6376 8.47423 36.4374 8.87459C35.9035 8.67441 35.4364 8.47423 34.9025 8.27405C29.3635 6.33899 24.4251 6.73935 21.0883 9.54185C18.8193 11.4102 17.4846 14.2127 17.1509 17.6157C16.5503 24.1549 19.7536 32.2288 25.6931 39.1016C30.0976 44.2395 35.4364 48.1096 40.7085 49.978C42.9775 50.7787 45.1797 51.179 47.1818 51.179C47.382 51.179 47.5155 51.179 47.7157 51.179C47.9159 51.179 48.0494 51.179 48.2496 51.179C50.2516 51.179 52.3871 50.7787 54.7229 49.978C59.995 48.1096 65.4005 44.2395 69.7383 39.1016C75.611 32.162 78.8143 24.1549 78.2137 17.6157ZM19.8871 17.8159C20.0873 15.1469 21.1551 13.0116 22.8234 11.6104C24.2916 10.4093 26.1602 9.80876 28.4292 9.80876C30.0976 9.80876 31.9662 10.1424 33.9682 10.8764C34.3686 11.0098 34.8358 11.21 35.2362 11.3435C35.6366 11.5436 36.1037 11.6771 36.5042 11.8773C36.9046 12.0774 37.305 12.2776 37.7054 12.4778C40.5083 14.0125 43.3111 16.1477 45.8471 18.6833C46.1808 19.017 46.5144 19.3506 46.7814 19.6842C47.1151 20.0179 47.382 20.3515 47.7157 20.6851C47.7157 20.7519 47.7824 20.7519 47.7824 20.8186C53.1212 27.0909 56.191 34.5642 55.6572 40.3026C55.457 42.9717 54.3892 45.1069 52.7208 46.5082C51.4528 47.5758 49.7845 48.1763 47.9159 48.3098C47.8491 48.3098 47.7824 48.3098 47.6489 48.3098C46.0473 48.3765 44.3122 48.1096 42.3769 47.5758C42.1099 47.5091 41.843 47.3756 41.576 47.3089C41.4426 47.2422 41.3091 47.2422 41.1756 47.1754C40.4415 46.9085 39.7075 46.5749 38.9734 46.2413C38.8399 46.1746 38.7064 46.1078 38.5062 46.0411C34.7023 44.106 30.8984 41.1034 27.6951 37.3C22.423 31.0277 19.4199 23.5544 19.8871 17.8159ZM39.3738 9.14149C41.843 5.00447 45.0463 2.73578 48.383 2.73578C51.7198 2.73578 54.9231 5.00447 57.3923 9.14149C57.459 9.27495 57.5258 9.4084 57.5925 9.47513C57.7927 9.87548 58.0596 10.2758 58.2598 10.6762C58.46 11.0766 58.6602 11.4769 58.8605 11.944C60.5288 15.8808 61.4631 20.5517 61.4631 25.5561C61.4631 30.8275 60.3954 35.832 58.5268 39.9023C58.7937 33.4966 55.6572 25.7563 49.9179 19.0837C49.8512 18.9503 49.7177 18.8835 49.5843 18.7501C49.2506 18.4164 48.9836 18.0828 48.65 17.7492C48.3163 17.4155 48.0494 17.0819 47.7157 16.7483C44.9795 14.0125 41.9764 11.6771 38.9066 10.0757C39.0401 9.74203 39.1736 9.47513 39.3738 9.14149ZM58.727 44.9735C59.0607 44.4397 59.4611 43.9726 59.7947 43.3721C62.6644 38.5678 64.1993 32.2955 64.1993 25.5561C64.1993 20.2181 63.1982 15.1469 61.3964 10.8764C61.4631 10.8764 61.4631 10.8764 61.5299 10.8097C63.5319 10.1424 65.4005 9.74203 67.0689 9.74203C69.2711 9.74203 71.2065 10.3426 72.6746 11.5436C74.343 12.9449 75.3441 15.0801 75.611 17.7492C76.1449 23.4876 73.0751 30.961 67.7362 37.2332C64.9334 40.4361 61.8635 43.0384 58.727 44.9735Z" fill="#F9F3F0"/>
<path d="M7.94149 43.3721L6.87373 41.5704L1.3347 44.9068L0 42.7048L5.53902 39.3685L4.47126 37.5669L6.60679 36.2991L10.1438 42.1043L7.94149 43.3721Z" fill="#F9F3F0"/>
<path d="M6.47332 44.84C8.54211 43.2386 11.4785 43.639 13.0801 45.7075C14.6817 47.776 14.4148 50.7119 12.2793 52.3134C10.2105 53.9148 7.27414 53.5144 5.67249 51.4459C4.07085 49.3774 4.40452 46.4415 6.47332 44.84ZM10.7444 50.3116C11.7454 49.5776 11.8789 48.2431 11.1448 47.2422C10.344 46.2413 9.07599 46.1078 8.07496 46.8418C7.07393 47.5758 6.94046 48.9103 7.67455 49.9112C8.47537 50.9121 9.81008 51.1123 10.7444 50.3116Z" fill="#F9F3F0"/>
<path d="M13.0134 53.3143C14.8152 51.3792 17.7516 51.2458 19.6869 53.0474C21.6222 54.849 21.8224 57.7182 20.0873 59.72C18.3522 61.7218 15.3491 61.7885 13.4138 59.9869C11.4785 58.1853 11.2115 55.2493 13.0134 53.3143ZM18.152 57.9184C19.0195 56.9842 18.9528 55.7164 18.0185 54.849C17.0842 53.9815 15.7495 54.0483 14.9487 54.9824C14.0811 55.9166 14.1479 57.1844 15.0822 58.0518C16.0165 58.9193 17.3512 58.8525 18.152 57.9184Z" fill="#F9F3F0"/>
<path d="M31.4323 66.6595C30.231 68.8615 27.7618 69.7289 25.3594 68.3944C22.8902 67.0599 22.1561 64.3241 23.4241 61.9887C24.692 59.6533 27.4282 58.7858 29.7639 60.1203C31.2321 60.9211 32.1664 62.389 32.2331 63.857L29.6972 63.9237C29.6304 63.3232 29.2968 62.7894 28.5627 62.389C27.4282 61.7885 26.2269 62.1889 25.6263 63.3232C25.0924 64.2574 25.0257 65.5919 26.4939 66.3926C27.3614 66.8597 28.0288 66.793 28.4959 66.3926L26.8276 65.4584L27.8953 63.5234L31.8994 65.7253L31.4323 66.6595Z" fill="#F9F3F0"/>
<path d="M32.6335 66.9264C33.4343 64.3908 36.037 63.123 38.5729 63.9237C41.1089 64.7244 42.5103 67.3268 41.7095 69.8624C40.9087 72.398 38.306 73.6658 35.7701 72.8651C33.2341 72.0643 31.8327 69.462 32.6335 66.9264ZM39.2403 69.0617C39.6407 67.8606 39.0401 66.7262 37.8389 66.3259C36.6376 65.9255 35.4364 66.5261 35.1027 67.7271C34.7023 68.9282 35.3029 70.0625 36.5042 70.4629C37.7054 70.8633 38.9066 70.196 39.2403 69.0617Z" fill="#F9F3F0"/>
<path d="M43.0442 69.9291C43.0442 67.26 45.1797 65.2583 47.7824 65.2583C50.4518 65.2583 52.5206 67.3268 52.5206 69.9958C52.5206 72.6649 50.3851 74.6667 47.7824 74.6667C45.113 74.6667 42.9775 72.5982 43.0442 69.9291ZM49.9847 69.9958C49.9847 68.728 49.0504 67.7939 47.7824 67.7939C46.5144 67.7939 45.5802 68.728 45.5802 69.9958C45.5802 71.2636 46.5144 72.1978 47.7824 72.1978C49.0504 72.1311 49.9847 71.1969 49.9847 69.9958Z" fill="#F9F3F0"/>
<path d="M61.8635 67.3268C62.6644 69.7289 61.3964 72.1978 59.0607 72.9318L55.5237 74.0661L52.7875 65.5252L56.3245 64.3908C58.727 63.5901 61.0627 64.8579 61.8635 67.3268ZM59.3943 68.0608C59.0607 66.9264 58.0596 66.3926 57.0586 66.7262L56.0576 67.0599L57.2588 70.8633L58.2598 70.5296C59.2609 70.196 59.7947 69.1951 59.3943 68.0608Z" fill="#F9F3F0"/>
<path d="M70.2054 60.3872L68.4036 61.4549L71.6736 67.0599L69.4714 68.3277L66.2013 62.7227L64.3995 63.7903L63.1315 61.655L69.0042 58.252L70.2054 60.3872Z" fill="#F9F3F0"/>
<path d="M71.7403 61.922C70.072 59.8534 70.4724 56.9842 72.5412 55.3161C74.61 53.6479 77.5463 53.9148 79.2147 55.9833C80.8831 58.0518 80.4827 60.9211 78.4139 62.5892C76.2783 64.2574 73.4087 63.9905 71.7403 61.922ZM77.1459 57.5847C76.3451 56.5839 75.0771 56.4504 74.0761 57.2511C73.0751 58.0518 72.9416 59.3196 73.7424 60.3205C74.5432 61.3214 75.8112 61.4549 76.8122 60.6542C77.7465 59.8534 77.88 58.5189 77.1459 57.5847Z" fill="#F9F3F0"/>
<path d="M88.0237 46.0411C89.9591 47.6425 90.2927 50.2449 88.5576 52.3134C86.7558 54.5153 83.9529 54.6488 81.8841 52.9806C79.8153 51.2458 79.5484 48.4432 81.2835 46.3747C82.3512 45.0402 83.9529 44.5064 85.4211 44.7066L84.9539 47.1754C84.3533 47.1087 83.7527 47.3756 83.2188 47.9762C82.418 48.9771 82.5515 50.2449 83.5525 51.0456C84.3533 51.7128 85.688 52.0465 86.7558 50.7787C87.3564 50.0447 87.4231 49.3774 87.1562 48.7769L85.9549 50.2449L84.2866 48.8436L87.2229 45.3738L88.0237 46.0411Z" fill="#F9F3F0"/>
<path d="M88.4909 45.1069C86.3554 43.5722 85.8882 40.703 87.4231 38.501C88.958 36.3658 91.8276 35.832 94.0299 37.3667C96.1654 38.9014 96.6326 41.7706 95.0977 43.9726C93.496 46.1078 90.6264 46.6416 88.4909 45.1069ZM92.495 39.4352C91.494 38.7012 90.1593 38.9014 89.4252 39.969C88.6911 40.9699 88.8913 42.3044 89.9591 43.0384C90.9601 43.7724 92.2948 43.5722 93.0289 42.5046C93.763 41.437 93.496 40.1692 92.495 39.4352Z" fill="#F9F3F0"/>
</svg>
